nColumns=19
nRows=123
DataType=double
version=3
OpenSimVersion=4.1
endheader
time	ground_force_calcn_r_vx	ground_force_calcn_r_vy	ground_force_calcn_r_vz	ground_force_calcn_r_px	ground_force_calcn_r_py	ground_force_calcn_r_pz	ground_force_calcn_r_mx	ground_force_calcn_r_my	ground_force_calcn_r_mz	ground_force_calcn_l_vx	ground_force_calcn_l_vy	ground_force_calcn_l_vz	ground_force_calcn_l_px	ground_force_calcn_l_py	ground_force_calcn_l_pz	ground_force_calcn_l_mx	ground_force_calcn_l_my	ground_force_calcn_l_mz
2.55	0	0	0	0	0	0	0	0	0	-238.299	1576.33	-0.277133	1.01203	0	-0.631733	-0.538081	3.55937	-0.00062577
2.55833	0	0	0	0	0	0	0	0	0	-182.449	1724.26	-0.18294	0.978681	0	-0.632704	-0.247643	2.34039	-0.00024831
2.56667	0	0	0	0	0	0	0	0	0	-127.499	1822.16	-3.83713	0.94798	0	-0.633528	-0.0848536	1.21268	-0.00255369
2.575	0	0	0	0	0	0	0	0	0	-87.361	1871.38	-3.84833	0.921531	0	-0.63403	-0.0117595	0.251904	-0.000518018
2.58333	0	0	0	0	0	0	0	0	0	-57.8024	1875.39	-0.751295	0.896843	0	-0.634583	0.0156089	-0.506429	0.000202879
2.59167	0	0	0	0	0	0	0	0	0	-25.4617	1841.88	0.809553	0.870067	0	-0.635669	0.013982	-1.01145	-0.000444558
2.6	0	0	0	0	0	0	0	0	0	11.1981	1783.36	-0.816526	0.841133	0	-0.636999	-0.00746903	-1.18949	0.000544614
2.60833	0	0	0	0	0	0	0	0	0	44.2658	1705.77	-4.56476	0.812732	0	-0.637772	-0.0253179	-0.975621	0.00261082
2.61667	0	0	0	0	0	0	0	0	0	73.879	1604.33	-10.7754	0.784956	0	-0.637731	-0.0166014	-0.36051	0.00242133
2.625	0	0	0	0	0	0	0	0	0	112.915	1473.57	-20.9348	0.753167	0	-0.637147	0.0432696	0.564676	-0.0080223
2.63333	0	0	0	0	0	0	0	0	0	165.618	1314.29	-33.9433	0.714249	0	-0.636	0.199592	1.5839	-0.0409064
2.64167	0	0	0	0	0	0	0	0	0	214.373	1136.06	-45.2694	0.672822	0	-0.634372	0.452566	2.39834	-0.0955687
2.65	0	0	0	0	0	0	0	0	0	236.136	950.973	-50.2763	0.636886	0	-0.632878	0.685701	2.76147	-0.145994
2.65833	0	0	0	0	0	0	0	0	0	226.223	762.1	-47.6181	0.608565	0	-0.631838	0.767027	2.58396	-0.161453
2.66667	0	0	0	0	0	0	0	0	0	197.598	569.187	-39.4741	0.582272	0	-0.631013	0.667497	1.92274	-0.133346
2.675	0	0	0	0	0	0	0	0	0	158.924	383.585	-29.0584	0.553769	0	-0.630495	0.406438	0.980994	-0.0743151
2.68333	0	0	0	0	0	0	0	0	0	113.004	228.229	-18.3579	0.528043	0	-0.630601	0.0302621	0.0611187	-0.00491615
2.69167	0	0	0	0	0	0	0	0	0	67.305	119.935	-8.39275	0.52286	0	-0.630175	-0.336326	-0.599323	0.041939
2.7	0	0	0	0	0	0	0	0	0	31.4856	58.2425	-0.681394	0.58	0	-0.627854	-0.523129	-0.967693	0.0113213
2.70833	0	0	0	0	0	0	0	0	0	10.6394	28.6478	3.17921	0.712877	0	-0.625868	-0.40192	-1.08221	-0.1201
2.71667	0	0	0	0	0	0	0	0	0	1.95155	14.0918	3.4982	0.751607	0	-0.617443	-0.110576	-0.798452	-0.19821
2.725	0	0	0	0	0	0	0	0	0	0	0	0	0	0	0	0	0	0
2.73333	0	0	0	0	0	0	0	0	0	0	0	0	0	0	0	0	0	0
2.74167	0	0	0	0	0	0	0	0	0	0	0	0	0	0	0	0	0	0
2.75	0	0	0	0	0	0	0	0	0	0	0	0	0	0	0	0	0	0
2.75833	0	0	0	0	0	0	0	0	0	0	0	0	0	0	0	0	0	0
2.76667	0	0	0	0	0	0	0	0	0	0	0	0	0	0	0	0	0	0
2.775	0	0	0	0	0	0	0	0	0	0	0	0	0	0	0	0	0	0
2.78333	0	0	0	0	0	0	0	0	0	0	0	0	0	0	0	0	0	0
2.79167	-3.42002	14.4106	-0.0456511	1.0075	0	-0.713482	-1.34692	5.67539	-0.017979	0	0	0	0	0	0	0	0	0
2.8	-5.53171	40.1648	-4.06946	1.12315	0	-0.661906	-1.07166	7.78111	-0.788376	0	0	0	0	0	0	0	0	0
2.80833	-13.4245	121.263	-8.62167	1.14188	0	-0.649188	-1.05815	9.55821	-0.679578	0	0	0	0	0	0	0	0	0
2.81667	-31.81	308.387	-10.8293	1.14522	0	-0.649462	-1.0858	10.5265	-0.369646	0	0	0	0	0	0	0	0	0
2.825	-64.4299	609.047	-6.48111	1.13934	0	-0.652651	-1.09215	10.3239	-0.109861	0	0	0	0	0	0	0	0	0
2.83333	-107.117	919.644	8.0989	1.12876	0	-0.655687	-1.03806	8.91221	0.0784858	0	0	0	0	0	0	0	0	0
2.84167	-151.485	1104.04	31.4583	1.11734	0	-0.657651	-0.905167	6.59696	0.187972	0	0	0	0	0	0	0	0	0
2.85	-200.663	1164.57	55.0722	1.10518	0	-0.658117	-0.681835	3.95709	0.18713	0	0	0	0	0	0	0	0	0
2.85833	-247.15	1213.75	69.3059	1.08726	0	-0.65756	-0.339221	1.66591	0.0951244	0	0	0	0	0	0	0	0	0
2.86667	-259.731	1320.85	71.6351	1.05872	0	-0.657097	-0.0364595	0.185413	0.0100557	0	0	0	0	0	0	0	0	0
2.875	-230.8	1475.18	67.2279	1.02343	0	-0.656879	0.0496238	-0.317176	-0.0144546	0	0	0	0	0	0	0	0	0
2.88333	-186.193	1628.7	62.1155	0.989762	0	-0.65616	-0.0169514	0.14828	0.00565514	0	0	0	0	0	0	0	0	0
2.89167	-144.503	1741.05	57.7421	0.959781	0	-0.654692	-0.114466	1.37914	0.0457393	0	0	0	0	0	0	0	0	0
2.9	-105.251	1805.73	52.1768	0.930451	0	-0.652958	-0.176818	3.03359	0.0876557	0	0	0	0	0	0	0	0	0
2.90833	-62.7548	1833	44.5668	0.900149	0	-0.651302	-0.161453	4.71588	0.11466	0	0	0	0	0	0	0	0	0
2.91667	-18.0616	1828.9	36.7794	0.869685	0	-0.649665	-0.059662	6.0413	0.121491	0	0	0	0	0	0	0	0	0
2.925	22.6874	1795.88	31.3259	0.839995	0	-0.648074	0.0847423	6.70798	0.117009	0	0	0	0	0	0	0	0	0
2.93333	60.3891	1734.81	29.2618	0.810305	0	-0.646876	0.228415	6.56173	0.110679	0	0	0	0	0	0	0	0	0
2.94167	102.699	1641.74	30.4438	0.77817	0	-0.646301	0.35177	5.62337	0.104277	0	0	0	0	0	0	0	0	0
2.95	155.28	1513.74	34.5026	0.741658	0	-0.646266	0.418792	4.08258	0.0930537	0	0	0	0	0	0	0	0	0
2.95833	213.089	1357.61	40.4491	0.702906	0	-0.646791	0.355932	2.26767	0.0675639	0	0	0	0	0	0	0	0	0
2.96667	258.686	1182.23	46.0164	0.666423	0	-0.647843	0.125948	0.575602	0.0224044	0	0	0	0	0	0	0	0	0
2.975	278.776	989.69	48.5355	0.632986	0	-0.648859	-0.185312	-0.657881	-0.0322633	0	0	0	0	0	0	0	0	0
2.98333	273.439	783.873	46.5586	0.601512	0	-0.649359	-0.437705	-1.25477	-0.074528	0	0	0	0	0	0	0	0	0
2.99167	247.24	578.413	40.4308	0.572556	0	-0.649334	-0.519843	-1.21616	-0.085009	0	0	0	0	0	0	0	0	0
3	202.61	390.936	31.6007	0.545504	0	-0.648272	-0.368754	-0.711511	-0.0575138	0	0	0	0	0	0	0	0	0
3.00833	144.784	236.771	21.8506	0.518762	0	-0.644664	-0.00104213	-0.00170423	-0.000157276	0	0	0	0	0	0	0	0	0
3.01667	86.3049	125.542	13.1491	0.496584	0	-0.636466	0.478974	0.696734	0.0729746	0	0	0	0	0	0	0	0	0
3.025	40.8254	56.94	7.30755	0.489818	0	-0.615894	0.934393	1.30322	0.167252	0	0	0	0	0	0	0	0	0
3.03333	15.1363	23.1983	4.81469	0.520636	0	-0.557593	1.22136	1.87189	0.388502	0	0	0	0	0	0	0	0	0
3.04167	5.38594	12.5808	4.30566	0.643189	0	-0.505888	1.0706	2.50077	0.855866	0	0	0	0	0	0	0	0	0
3.05	1.96373	10.7351	3.95652	0.737376	0	-0.561022	0.55049	3.00936	1.10913	0	0	0	0	0	0	0	0	0
3.05833	0	0	0	0	0	0	0	0	0	0	0	0	0	0	0	0	0	0
3.06667	0	0	0	0	0	0	0	0	0	0	0	0	0	0	0	0	0	0
3.075	0	0	0	0	0	0	0	0	0	0	0	0	0	0	0	0	0	0
3.08333	0	0	0	0	0	0	0	0	0	0	0	0	0	0	0	0	0	0
3.09167	0	0	0	0	0	0	0	0	0	0	0	0	0	0	0	0	0	0
3.1	0	0	0	0	0	0	0	0	0	0	0	0	0	0	0	0	0	0
3.10833	0	0	0	0	0	0	0	0	0	0	0	0	0	0	0	0	0	0
3.11667	0	0	0	0	0	0	0	0	0	-4.95623	16.813	3.66574	1.00912	0	-0.616286	0.122482	-0.415497	-0.0905907
3.125	0	0	0	0	0	0	0	0	0	-10.2374	44.5317	3.89301	1.10637	0	-0.611794	0.267922	-1.16543	-0.101883
3.13333	0	0	0	0	0	0	0	0	0	-22.7778	129.356	3.20409	1.14938	0	-0.617087	0.265489	-1.50773	-0.0373456
3.14167	0	0	0	0	0	0	0	0	0	-45.25	325.516	0.512582	1.15837	0	-0.618932	0.165778	-1.19256	-0.00187789
3.15	0	0	0	0	0	0	0	0	0	-75.8782	645.914	-6.66158	1.15341	0	-0.619526	0.0158733	-0.135122	0.00139357
3.15833	0	0	0	0	0	0	0	0	0	-111.625	982.528	-20.8894	1.14173	0	-0.619609	-0.173064	1.52331	-0.0323869
3.16667	0	0	0	0	0	0	0	0	0	-150.022	1171.07	-40.5655	1.12681	0	-0.618935	-0.435822	3.40202	-0.117845
3.175	0	0	0	0	0	0	0	0	0	-191.965	1194.74	-57.6302	1.11126	0	-0.617758	-0.800906	4.9846	-0.240441
3.18333	0	0	0	0	0	0	0	0	0	-236.447	1195.67	-62.6341	1.0952	0	-0.617026	-1.15766	5.8541	-0.306661
3.19167	0	0	0	0	0	0	0	0	0	-263.094	1278.05	-54.2137	1.07517	0	-0.617147	-1.22001	5.92652	-0.251397
3.2	0	0	0	0	0	0	0	0	0	-250.906	1428.65	-41.6041	1.04766	0	-0.617821	-0.934401	5.32042	-0.154938
3.20833	0	0	0	0	0	0	0	0	0	-210.093	1584.46	-34.837	1.01515	0	-0.618768	-0.559977	4.22317	-0.0928538
3.21667	0	0	0	0	0	0	0	0	0	-161.108	1705.07	-34.4369	0.982307	0	-0.619696	-0.277964	2.9418	-0.0594149
3.225	0	0	0	0	0	0	0	0	0	-118.148	1785.71	-34.1982	0.952066	0	-0.620282	-0.11827	1.78756	-0.0342336
3.23333	0	0	0	0	0	0	0	0	0	-84.2965	1827.58	-31.594	0.924688	0	-0.620507	-0.0458124	0.99323	-0.0171703
3.24167	0	0	0	0	0	0	0	0	0	-48.9068	1829.24	-30.2488	0.896851	0	-0.620811	-0.0187255	0.70038	-0.0115817
3.25	0	0	0	0	0	0	0	0	0	-6.48353	1797.92	-33.0555	0.866117	0	-0.621363	-0.00343552	0.95269	-0.0175156
3.25833	0	0	0	0	0	0	0	0	0	38.5923	1743.51	-38.3645	0.833795	0	-0.62171	0.0373666	1.68814	-0.037146
3.26667	0	0	0	0	0	0	0	0	0	84.0438	1663.3	-43.8572	0.80161	0	-0.621343	0.138699	2.74497	-0.0723784
3.275	0	0	0	0	0	0	0	0	0	135.277	1549.29	-49.9171	0.767422	0	-0.620262	0.338758	3.87972	-0.125002
3.28333	0	0	0	0	0	0	0	0	0	193.477	1404.37	-57.1853	0.728451	0	-0.618805	0.660428	4.79376	-0.1952
3.29167	0	0	0	0	0	0	0	0	0	241.216	1237.68	-63.1113	0.687752	0	-0.61725	1.01596	5.21288	-0.265814
3.3	0	0	0	0	0	0	0	0	0	260.435	1053.55	-63.2011	0.65181	0	-0.615768	1.23615	5.00067	-0.299982
3.30833	0	0	0	0	0	0	0	0	0	252.617	852.453	-55.4277	0.622631	0	-0.614312	1.2385	4.17931	-0.271745
3.31667	0	0	0	0	0	0	0	0	0	227.823	642.335	-42.1578	0.596744	0	-0.613084	1.03504	2.91824	-0.19153
3.325	0	0	0	0	0	0	0	0	0	189.149	440.918	-27.453	0.570545	0	-0.61274	0.656867	1.5312	-0.0953375
3.33333	0	0	0	0	0	0	0	0	0	137.139	269.802	-13.7909	0.545304	0	-0.613104	0.18766	0.369197	-0.0188714
3.34167	0	0	0	0	0	0	0	0	0	82.275	146.477	-2.34647	0.532964	0	-0.612074	-0.204478	-0.364041	0.0058317
3.35	0	0	0	0	0	0	0	0	0	39.5147	72.9435	5.14531	0.566298	0	-0.608302	-0.360157	-0.664845	-0.046897
3.35833	0	0	0	0	0	0	0	0	0	15.273	34.6803	7.18656	0.659903	0	-0.604214	-0.250129	-0.567966	-0.117696
3.36667	0	0	0	0	0	0	0	0	0	6.11649	14.7218	5.07131	0.67537	0	-0.59244	-0.051265	-0.12339	-0.0425049
3.375	0	0	0	0	0	0	0	0	0	0	0	0	0	0	0	0	0	0
3.38333	0	0	0	0	0	0	0	0	0	0	0	0	0	0	0	0	0	0
3.39167	-2.29576	10.2649	3.99749	0.999719	0	-0.653258	-0.307111	1.37316	0.534755	0	0	0	0	0	0	0	0	0
3.4	0	0	0	0	0	0	0	0	0	0	0	0	0	0	0	0	0	0
3.40833	0	0	0	0	0	0	0	0	0	0	0	0	0	0	0	0	0	0
3.41667	0	0	0	0	0	0	0	0	0	0	0	0	0	0	0	0	0	0
3.425	0	0	0	0	0	0	0	0	0	0	0	0	0	0	0	0	0	0
3.43333	-2.17148	10.0102	2.16055	0.951329	0	-0.709784	-1.03966	4.79264	1.03442	0	0	0	0	0	0	0	0	0
3.44167	-4.27926	19.1615	1.15847	1.11054	0	-0.690685	-1.41697	6.34485	0.383599	0	0	0	0	0	0	0	0	0
3.45	-8.32022	48.9263	-1.6049	1.15172	0	-0.651208	-1.31919	7.7574	-0.254462	0	0	0	0	0	0	0	0	0
3.45833	-16.7131	140.122	-3.80827	1.16943	0	-0.636759	-1.02901	8.62712	-0.23447	0	0	0	0	0	0	0	0	0
3.46667	-33.7236	345.244	-2.29643	1.17642	0	-0.637428	-0.835269	8.55103	-0.0568783	0	0	0	0	0	0	0	0	0
3.475	-65.4565	666.436	5.68791	1.17111	0	-0.640612	-0.727	7.40185	0.0631733	0	0	0	0	0	0	0	0	0
3.48333	-112.709	992.848	21.0919	1.16055	0	-0.64336	-0.608393	5.35931	0.113853	0	0	0	0	0	0	0	0	0
3.49167	-167.463	1186.27	40.6719	1.14905	0	-0.644925	-0.406419	2.87898	0.0987075	0	0	0	0	0	0	0	0	0
3.5	-223.657	1255.32	56.9601	1.13593	0	-0.645148	-0.100942	0.566561	0.0257076	0	0	0	0	0	0	0	0	0
3.50833	-267.939	1318.58	63.5176	1.11585	0	-0.644893	0.213128	-1.04885	-0.0505242	0	0	0	0	0	0	0	0	0
3.51667	-272.419	1440.8	60.34	1.08582	0	-0.645076	0.324084	-1.71405	-0.0717835	0	0	0	0	0	0	0	0	0
3.525	-235.798	1605.21	52.6717	1.05138	0	-0.645493	0.203541	-1.38562	-0.0454661	0	0	0	0	0	0	0	0	0
3.53333	-186.628	1762.86	45.2801	1.01973	0	-0.645417	0.0198785	-0.18777	-0.00482298	0	0	0	0	0	0	0	0	0
3.54167	-142.24	1874.8	39.0454	0.991871	0	-0.644722	-0.120103	1.58303	0.0329688	0	0	0	0	0	0	0	0	0
3.55	-102.101	1935.71	32.4452	0.965124	0	-0.643827	-0.188303	3.56998	0.0598379	0	0	0	0	0	0	0	0	0
3.55833	-62.9781	1955.43	24.6137	0.938212	0	-0.642926	-0.175031	5.43461	0.0684074	0	0	0	0	0	0	0	0	0
3.56667	-26.9885	1936.56	16.2789	0.911848	0	-0.641861	-0.096001	6.88857	0.057906	0	0	0	0	0	0	0	0	0
